<svg xmlns="http://www.w3.org/2000/svg" data-name="Layer 1" viewBox="0 0 120.215 138.812"><path fill="#82beb2" d="M120.215 104.109V34.703L60.107 0 0 34.703v69.406l60.107 34.703 60.108-34.703z"/><path d="M85.826 94.522h-4v-2h2v-2h2v4zm-10.318 0h-5.415v-2h5.415zm-11.732 0h-5.414v-2h5.414zm-11.732 0h-5.415v-2h5.415zm-11.732 0h-4v-4h2v2h2v2zm-2-9.953h-2v-5.1h2zm0-11.056h-2v-5.1h2zm0-11.054h-2v-5.1h2zm0-11.055h-2v-4h4v2h-2v2zM75.508 49.4h-5.415v-2h5.415zm-11.732 0h-5.414v-2h5.414zm-11.732 0h-5.415v-2h5.415zm33.782 2.004h-2v-2h-2v-2h4v4zm0 33.165h-2v-5.1h2zm0-11.056h-2v-5.1h2zm0-11.054h-2v-5.1h2z" fill="#fff"/><path fill="#82beb2" d="M25.757 36.849h23.11v23.11h-23.11z"/><path d="M49.868 60.959H24.757V35.848h25.111zm-23.111-2h21.111V37.848H26.757z" fill="#fff"/><path fill="#398b83" fill-rule="evenodd" d="M43.455 42.261v12.286H31.169"/><path fill="#398b83" d="M45.848 78.309h46.427v25.639H45.848z"/><path fill="#82beb2" d="M53.834 87.626h33.207v2H53.834zm0 6.196h25.722v2H53.834z"/></svg>