<svg xmlns="http://www.w3.org/2000/svg" data-name="Layer 1" viewBox="0 0 120.215 138.812"><path fill="#cfd3f7" d="M120.215 104.109V34.703L60.107 0 0 34.703v69.406l60.107 34.703 60.108-34.703z"/><path fill="#8992e7" d="M89.486 42.242v59.705H29.78l59.706-59.705z"/><path d="M64.067 96.751H34.478V82.83h29.589zm-27.589-2h25.589V84.83H36.478z" fill="#fff"/><path fill="#cfd3f7" d="M84.221 96.751H68.364V82.83h15.857v2H70.364v9.921h13.857v2z"/><path d="M84.171 78.817H53.258V64.9h30.913zm-28.913-2h26.913V66.9H55.258zm28.913-15.933H70.463V46.963h13.708zm-11.708-2h9.708v-9.921h-9.708zM80.813 34.269h3v2h-3zm-9.408 0h4.342v2h-4.342zm-7.066 4h-2v-4h4v2h-2v2zm-2 5.443h2v4.665h-2zm2 14.107h-4v-2h2v-2h2v4zm-12.672-2h4.002v2h-4.002zm-6.67 4h-2v-4h4v2h-2v2zm-2 4.673h2v4.005h-2zm2 12.677h-4v-2h2v-2h2v4zm-12.663-2h3.999v2h-3.999zm-6.665 4h-2v-4h4v2h-2v2zm-2 5.289h2v4.533h-2zm0 9.821h2v3h-2z" fill="#fff"/></svg>